<mxfile host="app.diagrams.net" modified="2022-07-03T22:02:33.184Z" agent="5.0 (Windows NT 10.0; Win64; x64) AppleWebKit/537.36 (KHTML, like Gecko) Chrome/103.0.0.0 Safari/537.36" etag="jj126iLXEgS6lb5jEB6R" version="20.0.4" type="github">
  <diagram name="Page-1" id="c37626ed-c26b-45fb-9056-f9ebc6bb27b6">
    <mxGraphModel dx="2844" dy="3224" grid="1" gridSize="10" guides="1" tooltips="1" connect="1" arrows="1" fold="1" page="1" pageScale="1" pageWidth="1100" pageHeight="850" math="0" shadow="0">
      <root>
        <object label="" Layers_for_Simpsons_net="" id="0">
          <mxCell />
        </object>
        <mxCell id="1" parent="0" />
        <mxCell id="YPs9j8cW3NX2H_9pNgDC-28" value="" style="edgeStyle=orthogonalEdgeStyle;curved=0;rounded=1;sketch=0;orthogonalLoop=1;jettySize=auto;html=1;strokeColor=#0B4D6A;" parent="1" source="YPs9j8cW3NX2H_9pNgDC-19" target="YPs9j8cW3NX2H_9pNgDC-27" edge="1">
          <mxGeometry relative="1" as="geometry" />
        </mxCell>
        <mxCell id="YPs9j8cW3NX2H_9pNgDC-20" value="&lt;h1&gt;&lt;font color=&quot;#000000&quot;&gt;Conv1_layer&lt;/font&gt;&lt;/h1&gt;" style="text;html=1;resizable=0;autosize=1;align=center;verticalAlign=middle;points=[];fillColor=none;strokeColor=none;rounded=0;sketch=0;fontSize=14;fontColor=#EEEEEE;" parent="1" vertex="1">
          <mxGeometry x="375" y="-800" width="190" height="80" as="geometry" />
        </mxCell>
        <mxCell id="YPs9j8cW3NX2H_9pNgDC-31" value="" style="edgeStyle=orthogonalEdgeStyle;curved=0;rounded=1;sketch=0;orthogonalLoop=1;jettySize=auto;html=1;strokeColor=#0B4D6A;" parent="1" source="YPs9j8cW3NX2H_9pNgDC-27" target="YPs9j8cW3NX2H_9pNgDC-30" edge="1">
          <mxGeometry relative="1" as="geometry" />
        </mxCell>
        <mxCell id="YPs9j8cW3NX2H_9pNgDC-44" value="" style="edgeStyle=orthogonalEdgeStyle;rounded=1;sketch=0;orthogonalLoop=1;jettySize=auto;html=1;strokeColor=#0B4D6A;" parent="1" source="YPs9j8cW3NX2H_9pNgDC-30" target="YPs9j8cW3NX2H_9pNgDC-43" edge="1">
          <mxGeometry relative="1" as="geometry" />
        </mxCell>
        <mxCell id="FaPtX6Fa4DKVDEPMlA59-1" value="" style="group;fontColor=#EEEEEE;" parent="1" vertex="1" connectable="0">
          <mxGeometry x="425" y="-690" width="90" height="80" as="geometry" />
        </mxCell>
        <mxCell id="YPs9j8cW3NX2H_9pNgDC-19" value="" style="whiteSpace=wrap;html=1;aspect=fixed;rounded=0;sketch=0;fontSize=14;fontColor=#EEEEEE;strokeColor=#BAC8D3;fillColor=#09555B;" parent="FaPtX6Fa4DKVDEPMlA59-1" vertex="1">
          <mxGeometry x="5" width="80" height="80" as="geometry" />
        </mxCell>
        <mxCell id="YPs9j8cW3NX2H_9pNgDC-22" value="&lt;h2&gt;Conv2d&lt;/h2&gt;" style="text;html=1;resizable=0;autosize=1;align=center;verticalAlign=middle;points=[];fillColor=none;strokeColor=none;rounded=0;sketch=0;fontColor=#EEEEEE;" parent="FaPtX6Fa4DKVDEPMlA59-1" vertex="1">
          <mxGeometry y="10" width="90" height="60" as="geometry" />
        </mxCell>
        <mxCell id="FaPtX6Fa4DKVDEPMlA59-2" value="" style="group;fontColor=#EEEEEE;" parent="1" vertex="1" connectable="0">
          <mxGeometry x="420" y="-530" width="100" height="100" as="geometry" />
        </mxCell>
        <mxCell id="YPs9j8cW3NX2H_9pNgDC-27" value="" style="whiteSpace=wrap;html=1;aspect=fixed;rounded=0;sketch=0;fontSize=14;fontColor=#EEEEEE;strokeColor=#BAC8D3;fillColor=#09555B;" parent="FaPtX6Fa4DKVDEPMlA59-2" vertex="1">
          <mxGeometry width="100" height="100" as="geometry" />
        </mxCell>
        <mxCell id="YPs9j8cW3NX2H_9pNgDC-46" value="&lt;h2&gt;F.relu&lt;/h2&gt;" style="text;html=1;resizable=0;autosize=1;align=center;verticalAlign=middle;points=[];fillColor=none;strokeColor=none;rounded=0;sketch=0;fontColor=#EEEEEE;" parent="FaPtX6Fa4DKVDEPMlA59-2" vertex="1">
          <mxGeometry x="15" y="20" width="70" height="60" as="geometry" />
        </mxCell>
        <mxCell id="FaPtX6Fa4DKVDEPMlA59-3" value="" style="group;fontColor=#EEEEEE;" parent="1" vertex="1" connectable="0">
          <mxGeometry x="420" y="-350" width="100" height="100" as="geometry" />
        </mxCell>
        <mxCell id="YPs9j8cW3NX2H_9pNgDC-30" value="" style="whiteSpace=wrap;html=1;aspect=fixed;rounded=0;sketch=0;fontSize=14;fontColor=#EEEEEE;strokeColor=#BAC8D3;fillColor=#09555B;" parent="FaPtX6Fa4DKVDEPMlA59-3" vertex="1">
          <mxGeometry width="100" height="100" as="geometry" />
        </mxCell>
        <mxCell id="YPs9j8cW3NX2H_9pNgDC-32" value="&lt;h3&gt;MaxPool2d&lt;/h3&gt;" style="text;html=1;resizable=0;autosize=1;align=center;verticalAlign=middle;points=[];fillColor=none;strokeColor=none;rounded=0;sketch=0;fontColor=#EEEEEE;" parent="FaPtX6Fa4DKVDEPMlA59-3" vertex="1">
          <mxGeometry y="20" width="100" height="60" as="geometry" />
        </mxCell>
        <mxCell id="FaPtX6Fa4DKVDEPMlA59-4" value="" style="group;fontColor=#EEEEEE;" parent="1" vertex="1" connectable="0">
          <mxGeometry x="410" y="-170" width="120" height="100" as="geometry" />
        </mxCell>
        <mxCell id="YPs9j8cW3NX2H_9pNgDC-43" value="" style="whiteSpace=wrap;html=1;aspect=fixed;rounded=0;sketch=0;fontSize=14;fontColor=#EEEEEE;strokeColor=#BAC8D3;fillColor=#09555B;" parent="FaPtX6Fa4DKVDEPMlA59-4" vertex="1">
          <mxGeometry x="10" width="100" height="100" as="geometry" />
        </mxCell>
        <mxCell id="YPs9j8cW3NX2H_9pNgDC-45" value="&lt;h3&gt;BatchNorm2d&lt;/h3&gt;" style="text;html=1;resizable=0;autosize=1;align=center;verticalAlign=middle;points=[];fillColor=none;strokeColor=none;rounded=0;sketch=0;fontColor=#EEEEEE;" parent="FaPtX6Fa4DKVDEPMlA59-4" vertex="1">
          <mxGeometry y="20" width="120" height="60" as="geometry" />
        </mxCell>
        <mxCell id="FaPtX6Fa4DKVDEPMlA59-5" value="&lt;h1&gt;&lt;font color=&quot;#000000&quot;&gt;Conv2_layer&lt;/font&gt;&lt;/h1&gt;" style="text;html=1;resizable=0;autosize=1;align=center;verticalAlign=middle;points=[];fillColor=none;strokeColor=none;rounded=0;sketch=0;fontSize=14;fontColor=#EEEEEE;" parent="1" vertex="1">
          <mxGeometry x="750" y="-800" width="190" height="80" as="geometry" />
        </mxCell>
        <mxCell id="FaPtX6Fa4DKVDEPMlA59-6" value="" style="edgeStyle=orthogonalEdgeStyle;curved=0;rounded=1;sketch=0;orthogonalLoop=1;jettySize=auto;html=1;strokeColor=#0B4D6A;" parent="1" source="FaPtX6Fa4DKVDEPMlA59-10" target="FaPtX6Fa4DKVDEPMlA59-13" edge="1">
          <mxGeometry relative="1" as="geometry" />
        </mxCell>
        <mxCell id="FaPtX6Fa4DKVDEPMlA59-7" value="" style="edgeStyle=orthogonalEdgeStyle;curved=0;rounded=1;sketch=0;orthogonalLoop=1;jettySize=auto;html=1;strokeColor=#0B4D6A;" parent="1" source="FaPtX6Fa4DKVDEPMlA59-13" target="FaPtX6Fa4DKVDEPMlA59-16" edge="1">
          <mxGeometry relative="1" as="geometry" />
        </mxCell>
        <mxCell id="FaPtX6Fa4DKVDEPMlA59-8" value="" style="edgeStyle=orthogonalEdgeStyle;rounded=1;sketch=0;orthogonalLoop=1;jettySize=auto;html=1;strokeColor=#0B4D6A;" parent="1" source="FaPtX6Fa4DKVDEPMlA59-16" target="FaPtX6Fa4DKVDEPMlA59-19" edge="1">
          <mxGeometry relative="1" as="geometry" />
        </mxCell>
        <mxCell id="FaPtX6Fa4DKVDEPMlA59-9" value="" style="group;fontColor=#EEEEEE;" parent="1" vertex="1" connectable="0">
          <mxGeometry x="805" y="-690" width="90" height="80" as="geometry" />
        </mxCell>
        <mxCell id="FaPtX6Fa4DKVDEPMlA59-10" value="" style="whiteSpace=wrap;html=1;aspect=fixed;rounded=0;sketch=0;fontSize=14;fontColor=#EEEEEE;strokeColor=#BAC8D3;fillColor=#09555B;" parent="FaPtX6Fa4DKVDEPMlA59-9" vertex="1">
          <mxGeometry x="5" width="80" height="80" as="geometry" />
        </mxCell>
        <mxCell id="FaPtX6Fa4DKVDEPMlA59-11" value="&lt;h2&gt;Conv2d&lt;/h2&gt;" style="text;html=1;resizable=0;autosize=1;align=center;verticalAlign=middle;points=[];fillColor=none;strokeColor=none;rounded=0;sketch=0;fontColor=#EEEEEE;" parent="FaPtX6Fa4DKVDEPMlA59-9" vertex="1">
          <mxGeometry y="10" width="90" height="60" as="geometry" />
        </mxCell>
        <mxCell id="FaPtX6Fa4DKVDEPMlA59-12" value="" style="group;fontColor=#EEEEEE;" parent="1" vertex="1" connectable="0">
          <mxGeometry x="800" y="-530" width="100" height="100" as="geometry" />
        </mxCell>
        <mxCell id="FaPtX6Fa4DKVDEPMlA59-13" value="" style="whiteSpace=wrap;html=1;aspect=fixed;rounded=0;sketch=0;fontSize=14;fontColor=#EEEEEE;strokeColor=#BAC8D3;fillColor=#09555B;" parent="FaPtX6Fa4DKVDEPMlA59-12" vertex="1">
          <mxGeometry width="100" height="100" as="geometry" />
        </mxCell>
        <mxCell id="FaPtX6Fa4DKVDEPMlA59-14" value="&lt;h2&gt;F.relu&lt;/h2&gt;" style="text;html=1;resizable=0;autosize=1;align=center;verticalAlign=middle;points=[];fillColor=none;strokeColor=none;rounded=0;sketch=0;fontColor=#EEEEEE;" parent="FaPtX6Fa4DKVDEPMlA59-12" vertex="1">
          <mxGeometry x="15" y="20" width="70" height="60" as="geometry" />
        </mxCell>
        <mxCell id="FaPtX6Fa4DKVDEPMlA59-15" value="" style="group;fontColor=#EEEEEE;" parent="1" vertex="1" connectable="0">
          <mxGeometry x="800" y="-350" width="100" height="100" as="geometry" />
        </mxCell>
        <mxCell id="FaPtX6Fa4DKVDEPMlA59-16" value="" style="whiteSpace=wrap;html=1;aspect=fixed;rounded=0;sketch=0;fontSize=14;fontColor=#EEEEEE;strokeColor=#BAC8D3;fillColor=#09555B;" parent="FaPtX6Fa4DKVDEPMlA59-15" vertex="1">
          <mxGeometry width="100" height="100" as="geometry" />
        </mxCell>
        <mxCell id="FaPtX6Fa4DKVDEPMlA59-17" value="&lt;h3&gt;MaxPool2d&lt;/h3&gt;" style="text;html=1;resizable=0;autosize=1;align=center;verticalAlign=middle;points=[];fillColor=none;strokeColor=none;rounded=0;sketch=0;fontColor=#EEEEEE;" parent="FaPtX6Fa4DKVDEPMlA59-15" vertex="1">
          <mxGeometry y="20" width="100" height="60" as="geometry" />
        </mxCell>
        <mxCell id="FaPtX6Fa4DKVDEPMlA59-18" value="" style="group;fontColor=#EEEEEE;" parent="1" vertex="1" connectable="0">
          <mxGeometry x="790" y="-170" width="120" height="100" as="geometry" />
        </mxCell>
        <mxCell id="FaPtX6Fa4DKVDEPMlA59-19" value="" style="whiteSpace=wrap;html=1;aspect=fixed;rounded=0;sketch=0;fontSize=14;fontColor=#EEEEEE;strokeColor=#BAC8D3;fillColor=#09555B;" parent="FaPtX6Fa4DKVDEPMlA59-18" vertex="1">
          <mxGeometry x="10" width="100" height="100" as="geometry" />
        </mxCell>
        <mxCell id="FaPtX6Fa4DKVDEPMlA59-20" value="&lt;h3&gt;BatchNorm2d&lt;/h3&gt;" style="text;html=1;resizable=0;autosize=1;align=center;verticalAlign=middle;points=[];fillColor=none;strokeColor=none;rounded=0;sketch=0;fontColor=#EEEEEE;" parent="FaPtX6Fa4DKVDEPMlA59-18" vertex="1">
          <mxGeometry y="20" width="120" height="60" as="geometry" />
        </mxCell>
        <mxCell id="cQOsYrCyrepyryi9Fav1-1" value="" style="edgeStyle=orthogonalEdgeStyle;curved=0;rounded=1;sketch=0;orthogonalLoop=1;jettySize=auto;html=1;strokeColor=#0B4D6A;" edge="1" parent="1" source="cQOsYrCyrepyryi9Fav1-7" target="cQOsYrCyrepyryi9Fav1-10">
          <mxGeometry relative="1" as="geometry" />
        </mxCell>
        <mxCell id="cQOsYrCyrepyryi9Fav1-2" value="" style="edgeStyle=orthogonalEdgeStyle;rounded=0;orthogonalLoop=1;jettySize=auto;html=1;strokeColor=#0B4D6A;" edge="1" parent="1" source="cQOsYrCyrepyryi9Fav1-3" target="cQOsYrCyrepyryi9Fav1-89">
          <mxGeometry relative="1" as="geometry" />
        </mxCell>
        <mxCell id="cQOsYrCyrepyryi9Fav1-3" value="&lt;h1&gt;&lt;font color=&quot;#000000&quot;&gt;Conv1_layer&lt;/font&gt;&lt;/h1&gt;" style="text;html=1;resizable=0;autosize=1;align=center;verticalAlign=middle;points=[];fillColor=none;strokeColor=none;rounded=0;sketch=0;fontSize=14;fontColor=#EEEEEE;" vertex="1" parent="1">
          <mxGeometry x="375" y="-800" width="190" height="80" as="geometry" />
        </mxCell>
        <mxCell id="cQOsYrCyrepyryi9Fav1-4" value="" style="edgeStyle=orthogonalEdgeStyle;curved=0;rounded=1;sketch=0;orthogonalLoop=1;jettySize=auto;html=1;strokeColor=#0B4D6A;" edge="1" parent="1" source="cQOsYrCyrepyryi9Fav1-10" target="cQOsYrCyrepyryi9Fav1-13">
          <mxGeometry relative="1" as="geometry" />
        </mxCell>
        <mxCell id="cQOsYrCyrepyryi9Fav1-5" value="" style="edgeStyle=orthogonalEdgeStyle;rounded=1;sketch=0;orthogonalLoop=1;jettySize=auto;html=1;strokeColor=#0B4D6A;" edge="1" parent="1" source="cQOsYrCyrepyryi9Fav1-13" target="cQOsYrCyrepyryi9Fav1-16">
          <mxGeometry relative="1" as="geometry" />
        </mxCell>
        <mxCell id="cQOsYrCyrepyryi9Fav1-6" value="" style="group;fontColor=#EEEEEE;" vertex="1" connectable="0" parent="1">
          <mxGeometry x="425" y="-690" width="90" height="80" as="geometry" />
        </mxCell>
        <mxCell id="cQOsYrCyrepyryi9Fav1-7" value="" style="whiteSpace=wrap;html=1;aspect=fixed;rounded=0;sketch=0;fontSize=14;fontColor=#EEEEEE;strokeColor=#BAC8D3;fillColor=#09555B;" vertex="1" parent="cQOsYrCyrepyryi9Fav1-6">
          <mxGeometry x="5" width="80" height="80" as="geometry" />
        </mxCell>
        <mxCell id="cQOsYrCyrepyryi9Fav1-8" value="&lt;h2&gt;Conv2d&lt;/h2&gt;" style="text;html=1;resizable=0;autosize=1;align=center;verticalAlign=middle;points=[];fillColor=none;strokeColor=none;rounded=0;sketch=0;fontColor=#EEEEEE;" vertex="1" parent="cQOsYrCyrepyryi9Fav1-6">
          <mxGeometry y="10" width="90" height="60" as="geometry" />
        </mxCell>
        <mxCell id="cQOsYrCyrepyryi9Fav1-9" value="" style="group;fontColor=#EEEEEE;" vertex="1" connectable="0" parent="1">
          <mxGeometry x="420" y="-530" width="100" height="100" as="geometry" />
        </mxCell>
        <mxCell id="cQOsYrCyrepyryi9Fav1-10" value="" style="whiteSpace=wrap;html=1;aspect=fixed;rounded=0;sketch=0;fontSize=14;fontColor=#EEEEEE;strokeColor=#BAC8D3;fillColor=#09555B;" vertex="1" parent="cQOsYrCyrepyryi9Fav1-9">
          <mxGeometry width="100" height="100" as="geometry" />
        </mxCell>
        <mxCell id="cQOsYrCyrepyryi9Fav1-11" value="&lt;h2&gt;F.relu&lt;/h2&gt;" style="text;html=1;resizable=0;autosize=1;align=center;verticalAlign=middle;points=[];fillColor=none;strokeColor=none;rounded=0;sketch=0;fontColor=#EEEEEE;" vertex="1" parent="cQOsYrCyrepyryi9Fav1-9">
          <mxGeometry x="15" y="20" width="70" height="60" as="geometry" />
        </mxCell>
        <mxCell id="cQOsYrCyrepyryi9Fav1-12" value="" style="group;fontColor=#EEEEEE;" vertex="1" connectable="0" parent="1">
          <mxGeometry x="420" y="-350" width="100" height="100" as="geometry" />
        </mxCell>
        <mxCell id="cQOsYrCyrepyryi9Fav1-13" value="" style="whiteSpace=wrap;html=1;aspect=fixed;rounded=0;sketch=0;fontSize=14;fontColor=#EEEEEE;strokeColor=#BAC8D3;fillColor=#09555B;" vertex="1" parent="cQOsYrCyrepyryi9Fav1-12">
          <mxGeometry width="100" height="100" as="geometry" />
        </mxCell>
        <mxCell id="cQOsYrCyrepyryi9Fav1-14" value="&lt;h3&gt;MaxPool2d&lt;/h3&gt;" style="text;html=1;resizable=0;autosize=1;align=center;verticalAlign=middle;points=[];fillColor=none;strokeColor=none;rounded=0;sketch=0;fontColor=#EEEEEE;" vertex="1" parent="cQOsYrCyrepyryi9Fav1-12">
          <mxGeometry y="20" width="100" height="60" as="geometry" />
        </mxCell>
        <mxCell id="cQOsYrCyrepyryi9Fav1-15" value="" style="group;fontColor=#EEEEEE;" vertex="1" connectable="0" parent="1">
          <mxGeometry x="410" y="-170" width="120" height="100" as="geometry" />
        </mxCell>
        <mxCell id="cQOsYrCyrepyryi9Fav1-16" value="" style="whiteSpace=wrap;html=1;aspect=fixed;rounded=0;sketch=0;fontSize=14;fontColor=#EEEEEE;strokeColor=#BAC8D3;fillColor=#09555B;" vertex="1" parent="cQOsYrCyrepyryi9Fav1-15">
          <mxGeometry x="10" width="100" height="100" as="geometry" />
        </mxCell>
        <mxCell id="cQOsYrCyrepyryi9Fav1-17" value="&lt;h3&gt;BatchNorm2d&lt;/h3&gt;" style="text;html=1;resizable=0;autosize=1;align=center;verticalAlign=middle;points=[];fillColor=none;strokeColor=none;rounded=0;sketch=0;fontColor=#EEEEEE;" vertex="1" parent="cQOsYrCyrepyryi9Fav1-15">
          <mxGeometry y="20" width="120" height="60" as="geometry" />
        </mxCell>
        <mxCell id="cQOsYrCyrepyryi9Fav1-18" value="" style="edgeStyle=orthogonalEdgeStyle;rounded=0;orthogonalLoop=1;jettySize=auto;html=1;strokeColor=#0B4D6A;" edge="1" parent="1" source="cQOsYrCyrepyryi9Fav1-19" target="cQOsYrCyrepyryi9Fav1-90">
          <mxGeometry relative="1" as="geometry" />
        </mxCell>
        <mxCell id="cQOsYrCyrepyryi9Fav1-19" value="&lt;h1&gt;&lt;font color=&quot;#000000&quot;&gt;Conv2_layer&lt;/font&gt;&lt;/h1&gt;" style="text;html=1;resizable=0;autosize=1;align=center;verticalAlign=middle;points=[];fillColor=none;strokeColor=none;rounded=0;sketch=0;fontSize=14;fontColor=#EEEEEE;" vertex="1" parent="1">
          <mxGeometry x="750" y="-800" width="190" height="80" as="geometry" />
        </mxCell>
        <mxCell id="cQOsYrCyrepyryi9Fav1-20" value="" style="edgeStyle=orthogonalEdgeStyle;curved=0;rounded=1;sketch=0;orthogonalLoop=1;jettySize=auto;html=1;strokeColor=#0B4D6A;" edge="1" parent="1" source="cQOsYrCyrepyryi9Fav1-24" target="cQOsYrCyrepyryi9Fav1-27">
          <mxGeometry relative="1" as="geometry" />
        </mxCell>
        <mxCell id="cQOsYrCyrepyryi9Fav1-21" value="" style="edgeStyle=orthogonalEdgeStyle;curved=0;rounded=1;sketch=0;orthogonalLoop=1;jettySize=auto;html=1;strokeColor=#0B4D6A;" edge="1" parent="1" source="cQOsYrCyrepyryi9Fav1-27" target="cQOsYrCyrepyryi9Fav1-30">
          <mxGeometry relative="1" as="geometry" />
        </mxCell>
        <mxCell id="cQOsYrCyrepyryi9Fav1-22" value="" style="edgeStyle=orthogonalEdgeStyle;rounded=1;sketch=0;orthogonalLoop=1;jettySize=auto;html=1;strokeColor=#0B4D6A;" edge="1" parent="1" source="cQOsYrCyrepyryi9Fav1-30" target="cQOsYrCyrepyryi9Fav1-33">
          <mxGeometry relative="1" as="geometry" />
        </mxCell>
        <mxCell id="cQOsYrCyrepyryi9Fav1-23" value="" style="group;fontColor=#EEEEEE;" vertex="1" connectable="0" parent="1">
          <mxGeometry x="805" y="-690" width="90" height="80" as="geometry" />
        </mxCell>
        <mxCell id="cQOsYrCyrepyryi9Fav1-24" value="" style="whiteSpace=wrap;html=1;aspect=fixed;rounded=0;sketch=0;fontSize=14;fontColor=#EEEEEE;strokeColor=#BAC8D3;fillColor=#09555B;" vertex="1" parent="cQOsYrCyrepyryi9Fav1-23">
          <mxGeometry x="5" width="80" height="80" as="geometry" />
        </mxCell>
        <mxCell id="cQOsYrCyrepyryi9Fav1-25" value="&lt;h2&gt;Conv2d&lt;/h2&gt;" style="text;html=1;resizable=0;autosize=1;align=center;verticalAlign=middle;points=[];fillColor=none;strokeColor=none;rounded=0;sketch=0;fontColor=#EEEEEE;" vertex="1" parent="cQOsYrCyrepyryi9Fav1-23">
          <mxGeometry y="10" width="90" height="60" as="geometry" />
        </mxCell>
        <mxCell id="cQOsYrCyrepyryi9Fav1-26" value="" style="group;fontColor=#EEEEEE;" vertex="1" connectable="0" parent="1">
          <mxGeometry x="800" y="-530" width="100" height="100" as="geometry" />
        </mxCell>
        <mxCell id="cQOsYrCyrepyryi9Fav1-27" value="" style="whiteSpace=wrap;html=1;aspect=fixed;rounded=0;sketch=0;fontSize=14;fontColor=#EEEEEE;strokeColor=#BAC8D3;fillColor=#09555B;" vertex="1" parent="cQOsYrCyrepyryi9Fav1-26">
          <mxGeometry width="100" height="100" as="geometry" />
        </mxCell>
        <mxCell id="cQOsYrCyrepyryi9Fav1-28" value="&lt;h2&gt;F.relu&lt;/h2&gt;" style="text;html=1;resizable=0;autosize=1;align=center;verticalAlign=middle;points=[];fillColor=none;strokeColor=none;rounded=0;sketch=0;fontColor=#EEEEEE;" vertex="1" parent="cQOsYrCyrepyryi9Fav1-26">
          <mxGeometry x="15" y="20" width="70" height="60" as="geometry" />
        </mxCell>
        <mxCell id="cQOsYrCyrepyryi9Fav1-29" value="" style="group;fontColor=#EEEEEE;" vertex="1" connectable="0" parent="1">
          <mxGeometry x="800" y="-350" width="100" height="100" as="geometry" />
        </mxCell>
        <mxCell id="cQOsYrCyrepyryi9Fav1-30" value="" style="whiteSpace=wrap;html=1;aspect=fixed;rounded=0;sketch=0;fontSize=14;fontColor=#EEEEEE;strokeColor=#BAC8D3;fillColor=#09555B;" vertex="1" parent="cQOsYrCyrepyryi9Fav1-29">
          <mxGeometry width="100" height="100" as="geometry" />
        </mxCell>
        <mxCell id="cQOsYrCyrepyryi9Fav1-31" value="&lt;h3&gt;MaxPool2d&lt;/h3&gt;" style="text;html=1;resizable=0;autosize=1;align=center;verticalAlign=middle;points=[];fillColor=none;strokeColor=none;rounded=0;sketch=0;fontColor=#EEEEEE;" vertex="1" parent="cQOsYrCyrepyryi9Fav1-29">
          <mxGeometry y="20" width="100" height="60" as="geometry" />
        </mxCell>
        <mxCell id="cQOsYrCyrepyryi9Fav1-32" value="" style="group;fontColor=#EEEEEE;" vertex="1" connectable="0" parent="1">
          <mxGeometry x="790" y="-170" width="120" height="100" as="geometry" />
        </mxCell>
        <mxCell id="cQOsYrCyrepyryi9Fav1-33" value="" style="whiteSpace=wrap;html=1;aspect=fixed;rounded=0;sketch=0;fontSize=14;fontColor=#EEEEEE;strokeColor=#BAC8D3;fillColor=#09555B;" vertex="1" parent="cQOsYrCyrepyryi9Fav1-32">
          <mxGeometry x="10" width="100" height="100" as="geometry" />
        </mxCell>
        <mxCell id="cQOsYrCyrepyryi9Fav1-34" value="&lt;h3&gt;BatchNorm2d&lt;/h3&gt;" style="text;html=1;resizable=0;autosize=1;align=center;verticalAlign=middle;points=[];fillColor=none;strokeColor=none;rounded=0;sketch=0;fontColor=#EEEEEE;" vertex="1" parent="cQOsYrCyrepyryi9Fav1-32">
          <mxGeometry y="20" width="120" height="60" as="geometry" />
        </mxCell>
        <mxCell id="cQOsYrCyrepyryi9Fav1-35" value="" style="edgeStyle=orthogonalEdgeStyle;rounded=0;orthogonalLoop=1;jettySize=auto;html=1;strokeColor=#0B4D6A;" edge="1" parent="1" source="cQOsYrCyrepyryi9Fav1-36" target="cQOsYrCyrepyryi9Fav1-91">
          <mxGeometry relative="1" as="geometry" />
        </mxCell>
        <mxCell id="cQOsYrCyrepyryi9Fav1-36" value="&lt;h1&gt;&lt;font color=&quot;#000000&quot;&gt;Conv3_layer&lt;/font&gt;&lt;/h1&gt;" style="text;html=1;resizable=0;autosize=1;align=center;verticalAlign=middle;points=[];fillColor=none;strokeColor=none;rounded=0;sketch=0;fontSize=14;fontColor=#EEEEEE;" vertex="1" parent="1">
          <mxGeometry x="1090" y="-800" width="190" height="80" as="geometry" />
        </mxCell>
        <mxCell id="cQOsYrCyrepyryi9Fav1-37" value="" style="edgeStyle=orthogonalEdgeStyle;curved=0;rounded=1;sketch=0;orthogonalLoop=1;jettySize=auto;html=1;strokeColor=#0B4D6A;" edge="1" parent="1" source="cQOsYrCyrepyryi9Fav1-41" target="cQOsYrCyrepyryi9Fav1-44">
          <mxGeometry relative="1" as="geometry" />
        </mxCell>
        <mxCell id="cQOsYrCyrepyryi9Fav1-38" value="" style="edgeStyle=orthogonalEdgeStyle;curved=0;rounded=1;sketch=0;orthogonalLoop=1;jettySize=auto;html=1;strokeColor=#0B4D6A;" edge="1" parent="1" source="cQOsYrCyrepyryi9Fav1-44" target="cQOsYrCyrepyryi9Fav1-47">
          <mxGeometry relative="1" as="geometry" />
        </mxCell>
        <mxCell id="cQOsYrCyrepyryi9Fav1-39" value="" style="edgeStyle=orthogonalEdgeStyle;rounded=1;sketch=0;orthogonalLoop=1;jettySize=auto;html=1;strokeColor=#0B4D6A;" edge="1" parent="1" source="cQOsYrCyrepyryi9Fav1-47" target="cQOsYrCyrepyryi9Fav1-50">
          <mxGeometry relative="1" as="geometry" />
        </mxCell>
        <mxCell id="cQOsYrCyrepyryi9Fav1-40" value="" style="group;fontColor=#EEEEEE;" vertex="1" connectable="0" parent="1">
          <mxGeometry x="1145" y="-690" width="90" height="80" as="geometry" />
        </mxCell>
        <mxCell id="cQOsYrCyrepyryi9Fav1-41" value="" style="whiteSpace=wrap;html=1;aspect=fixed;rounded=0;sketch=0;fontSize=14;fontColor=#EEEEEE;strokeColor=#BAC8D3;fillColor=#09555B;" vertex="1" parent="cQOsYrCyrepyryi9Fav1-40">
          <mxGeometry x="5" width="80" height="80" as="geometry" />
        </mxCell>
        <mxCell id="cQOsYrCyrepyryi9Fav1-42" value="&lt;h2&gt;Conv2d&lt;/h2&gt;" style="text;html=1;resizable=0;autosize=1;align=center;verticalAlign=middle;points=[];fillColor=none;strokeColor=none;rounded=0;sketch=0;fontColor=#EEEEEE;" vertex="1" parent="cQOsYrCyrepyryi9Fav1-40">
          <mxGeometry y="10" width="90" height="60" as="geometry" />
        </mxCell>
        <mxCell id="cQOsYrCyrepyryi9Fav1-43" value="" style="group;fontColor=#EEEEEE;" vertex="1" connectable="0" parent="1">
          <mxGeometry x="1140" y="-530" width="100" height="100" as="geometry" />
        </mxCell>
        <mxCell id="cQOsYrCyrepyryi9Fav1-44" value="" style="whiteSpace=wrap;html=1;aspect=fixed;rounded=0;sketch=0;fontSize=14;fontColor=#EEEEEE;strokeColor=#BAC8D3;fillColor=#09555B;" vertex="1" parent="cQOsYrCyrepyryi9Fav1-43">
          <mxGeometry width="100" height="100" as="geometry" />
        </mxCell>
        <mxCell id="cQOsYrCyrepyryi9Fav1-45" value="&lt;h2&gt;F.relu&lt;/h2&gt;" style="text;html=1;resizable=0;autosize=1;align=center;verticalAlign=middle;points=[];fillColor=none;strokeColor=none;rounded=0;sketch=0;fontColor=#EEEEEE;" vertex="1" parent="cQOsYrCyrepyryi9Fav1-43">
          <mxGeometry x="15" y="20" width="70" height="60" as="geometry" />
        </mxCell>
        <mxCell id="cQOsYrCyrepyryi9Fav1-46" value="" style="group;fontColor=#EEEEEE;" vertex="1" connectable="0" parent="1">
          <mxGeometry x="1140" y="-350" width="100" height="100" as="geometry" />
        </mxCell>
        <mxCell id="cQOsYrCyrepyryi9Fav1-47" value="" style="whiteSpace=wrap;html=1;aspect=fixed;rounded=0;sketch=0;fontSize=14;fontColor=#EEEEEE;strokeColor=#BAC8D3;fillColor=#09555B;" vertex="1" parent="cQOsYrCyrepyryi9Fav1-46">
          <mxGeometry width="100" height="100" as="geometry" />
        </mxCell>
        <mxCell id="cQOsYrCyrepyryi9Fav1-48" value="&lt;h3&gt;MaxPool2d&lt;/h3&gt;" style="text;html=1;resizable=0;autosize=1;align=center;verticalAlign=middle;points=[];fillColor=none;strokeColor=none;rounded=0;sketch=0;fontColor=#EEEEEE;" vertex="1" parent="cQOsYrCyrepyryi9Fav1-46">
          <mxGeometry y="20" width="100" height="60" as="geometry" />
        </mxCell>
        <mxCell id="cQOsYrCyrepyryi9Fav1-49" value="" style="group;fontColor=#EEEEEE;" vertex="1" connectable="0" parent="1">
          <mxGeometry x="1130" y="-170" width="120" height="100" as="geometry" />
        </mxCell>
        <mxCell id="cQOsYrCyrepyryi9Fav1-50" value="" style="whiteSpace=wrap;html=1;aspect=fixed;rounded=0;sketch=0;fontSize=14;fontColor=#EEEEEE;strokeColor=#BAC8D3;fillColor=#09555B;" vertex="1" parent="cQOsYrCyrepyryi9Fav1-49">
          <mxGeometry x="10" width="100" height="100" as="geometry" />
        </mxCell>
        <mxCell id="cQOsYrCyrepyryi9Fav1-51" value="&lt;h3&gt;BatchNorm2d&lt;/h3&gt;" style="text;html=1;resizable=0;autosize=1;align=center;verticalAlign=middle;points=[];fillColor=none;strokeColor=none;rounded=0;sketch=0;fontColor=#EEEEEE;" vertex="1" parent="cQOsYrCyrepyryi9Fav1-49">
          <mxGeometry y="20" width="120" height="60" as="geometry" />
        </mxCell>
        <mxCell id="cQOsYrCyrepyryi9Fav1-52" value="" style="edgeStyle=orthogonalEdgeStyle;rounded=0;orthogonalLoop=1;jettySize=auto;html=1;strokeColor=#0B4D6A;" edge="1" parent="1" source="cQOsYrCyrepyryi9Fav1-53" target="cQOsYrCyrepyryi9Fav1-66">
          <mxGeometry relative="1" as="geometry" />
        </mxCell>
        <mxCell id="cQOsYrCyrepyryi9Fav1-53" value="&lt;h1&gt;&lt;font color=&quot;#000000&quot;&gt;Conv4_layer&lt;/font&gt;&lt;/h1&gt;" style="text;html=1;resizable=0;autosize=1;align=center;verticalAlign=middle;points=[];fillColor=none;strokeColor=none;rounded=0;sketch=0;fontSize=14;fontColor=#EEEEEE;" vertex="1" parent="1">
          <mxGeometry x="1460" y="-800" width="190" height="80" as="geometry" />
        </mxCell>
        <mxCell id="cQOsYrCyrepyryi9Fav1-54" value="" style="edgeStyle=orthogonalEdgeStyle;curved=0;rounded=1;sketch=0;orthogonalLoop=1;jettySize=auto;html=1;strokeColor=#0B4D6A;" edge="1" parent="1" source="cQOsYrCyrepyryi9Fav1-57" target="cQOsYrCyrepyryi9Fav1-60">
          <mxGeometry relative="1" as="geometry" />
        </mxCell>
        <mxCell id="cQOsYrCyrepyryi9Fav1-55" value="" style="edgeStyle=orthogonalEdgeStyle;curved=0;rounded=1;sketch=0;orthogonalLoop=1;jettySize=auto;html=1;strokeColor=#0B4D6A;" edge="1" parent="1" source="cQOsYrCyrepyryi9Fav1-60">
          <mxGeometry relative="1" as="geometry">
            <mxPoint x="1560" y="-350" as="targetPoint" />
          </mxGeometry>
        </mxCell>
        <mxCell id="cQOsYrCyrepyryi9Fav1-56" value="" style="group;fontColor=#EEEEEE;" vertex="1" connectable="0" parent="1">
          <mxGeometry x="1515" y="-690" width="90" height="80" as="geometry" />
        </mxCell>
        <mxCell id="cQOsYrCyrepyryi9Fav1-57" value="" style="whiteSpace=wrap;html=1;aspect=fixed;rounded=0;sketch=0;fontSize=14;fontColor=#EEEEEE;strokeColor=#BAC8D3;fillColor=#09555B;" vertex="1" parent="cQOsYrCyrepyryi9Fav1-56">
          <mxGeometry x="5" width="80" height="80" as="geometry" />
        </mxCell>
        <mxCell id="cQOsYrCyrepyryi9Fav1-58" value="&lt;h2&gt;Conv2d&lt;/h2&gt;" style="text;html=1;resizable=0;autosize=1;align=center;verticalAlign=middle;points=[];fillColor=none;strokeColor=none;rounded=0;sketch=0;fontColor=#EEEEEE;" vertex="1" parent="cQOsYrCyrepyryi9Fav1-56">
          <mxGeometry y="10" width="90" height="60" as="geometry" />
        </mxCell>
        <mxCell id="cQOsYrCyrepyryi9Fav1-59" value="" style="group;fontColor=#EEEEEE;" vertex="1" connectable="0" parent="1">
          <mxGeometry x="1510" y="-530" width="100" height="100" as="geometry" />
        </mxCell>
        <mxCell id="cQOsYrCyrepyryi9Fav1-60" value="" style="whiteSpace=wrap;html=1;aspect=fixed;rounded=0;sketch=0;fontSize=14;fontColor=#EEEEEE;strokeColor=#BAC8D3;fillColor=#09555B;" vertex="1" parent="cQOsYrCyrepyryi9Fav1-59">
          <mxGeometry width="100" height="100" as="geometry" />
        </mxCell>
        <mxCell id="cQOsYrCyrepyryi9Fav1-61" value="&lt;h2&gt;F.relu&lt;/h2&gt;" style="text;html=1;resizable=0;autosize=1;align=center;verticalAlign=middle;points=[];fillColor=none;strokeColor=none;rounded=0;sketch=0;fontColor=#EEEEEE;" vertex="1" parent="cQOsYrCyrepyryi9Fav1-59">
          <mxGeometry x="15" y="20" width="70" height="60" as="geometry" />
        </mxCell>
        <mxCell id="cQOsYrCyrepyryi9Fav1-62" value="" style="group;fontColor=#EEEEEE;" vertex="1" connectable="0" parent="1">
          <mxGeometry x="1500" y="-350" width="120" height="100" as="geometry" />
        </mxCell>
        <mxCell id="cQOsYrCyrepyryi9Fav1-63" value="" style="whiteSpace=wrap;html=1;aspect=fixed;rounded=0;sketch=0;fontSize=14;fontColor=#EEEEEE;strokeColor=#BAC8D3;fillColor=#09555B;" vertex="1" parent="cQOsYrCyrepyryi9Fav1-62">
          <mxGeometry x="10" width="100" height="100" as="geometry" />
        </mxCell>
        <mxCell id="cQOsYrCyrepyryi9Fav1-64" value="&lt;h3&gt;BatchNorm2d&lt;/h3&gt;" style="text;html=1;resizable=0;autosize=1;align=center;verticalAlign=middle;points=[];fillColor=none;strokeColor=none;rounded=0;sketch=0;fontColor=#EEEEEE;" vertex="1" parent="cQOsYrCyrepyryi9Fav1-62">
          <mxGeometry y="20" width="120" height="60" as="geometry" />
        </mxCell>
        <mxCell id="cQOsYrCyrepyryi9Fav1-65" value="" style="edgeStyle=orthogonalEdgeStyle;rounded=0;orthogonalLoop=1;jettySize=auto;html=1;strokeColor=#0B4D6A;" edge="1" parent="1" source="cQOsYrCyrepyryi9Fav1-66" target="cQOsYrCyrepyryi9Fav1-92">
          <mxGeometry relative="1" as="geometry" />
        </mxCell>
        <mxCell id="cQOsYrCyrepyryi9Fav1-66" value="&lt;h1&gt;&lt;font color=&quot;#000000&quot;&gt;Conv5_layer&lt;/font&gt;&lt;/h1&gt;" style="text;html=1;resizable=0;autosize=1;align=center;verticalAlign=middle;points=[];fillColor=none;strokeColor=none;rounded=0;sketch=0;fontSize=14;fontColor=#EEEEEE;" vertex="1" parent="1">
          <mxGeometry x="1740" y="-800" width="190" height="80" as="geometry" />
        </mxCell>
        <mxCell id="cQOsYrCyrepyryi9Fav1-67" value="" style="edgeStyle=orthogonalEdgeStyle;curved=0;rounded=1;sketch=0;orthogonalLoop=1;jettySize=auto;html=1;strokeColor=#0B4D6A;" edge="1" parent="1" source="cQOsYrCyrepyryi9Fav1-70" target="cQOsYrCyrepyryi9Fav1-73">
          <mxGeometry relative="1" as="geometry" />
        </mxCell>
        <mxCell id="cQOsYrCyrepyryi9Fav1-68" value="" style="edgeStyle=orthogonalEdgeStyle;curved=0;rounded=1;sketch=0;orthogonalLoop=1;jettySize=auto;html=1;strokeColor=#0B4D6A;" edge="1" parent="1" source="cQOsYrCyrepyryi9Fav1-73">
          <mxGeometry relative="1" as="geometry">
            <mxPoint x="1840" y="-350" as="targetPoint" />
          </mxGeometry>
        </mxCell>
        <mxCell id="cQOsYrCyrepyryi9Fav1-69" value="" style="group;fontColor=#EEEEEE;" vertex="1" connectable="0" parent="1">
          <mxGeometry x="1795" y="-690" width="90" height="80" as="geometry" />
        </mxCell>
        <mxCell id="cQOsYrCyrepyryi9Fav1-70" value="" style="whiteSpace=wrap;html=1;aspect=fixed;rounded=0;sketch=0;fontSize=14;fontColor=#EEEEEE;strokeColor=#BAC8D3;fillColor=#09555B;" vertex="1" parent="cQOsYrCyrepyryi9Fav1-69">
          <mxGeometry x="5" width="80" height="80" as="geometry" />
        </mxCell>
        <mxCell id="cQOsYrCyrepyryi9Fav1-71" value="&lt;h2&gt;Conv2d&lt;/h2&gt;" style="text;html=1;resizable=0;autosize=1;align=center;verticalAlign=middle;points=[];fillColor=none;strokeColor=none;rounded=0;sketch=0;fontColor=#EEEEEE;" vertex="1" parent="cQOsYrCyrepyryi9Fav1-69">
          <mxGeometry y="10" width="90" height="60" as="geometry" />
        </mxCell>
        <mxCell id="cQOsYrCyrepyryi9Fav1-72" value="" style="group;fontColor=#EEEEEE;" vertex="1" connectable="0" parent="1">
          <mxGeometry x="1790" y="-530" width="100" height="100" as="geometry" />
        </mxCell>
        <mxCell id="cQOsYrCyrepyryi9Fav1-73" value="" style="whiteSpace=wrap;html=1;aspect=fixed;rounded=0;sketch=0;fontSize=14;fontColor=#EEEEEE;strokeColor=#BAC8D3;fillColor=#09555B;" vertex="1" parent="cQOsYrCyrepyryi9Fav1-72">
          <mxGeometry width="100" height="100" as="geometry" />
        </mxCell>
        <mxCell id="cQOsYrCyrepyryi9Fav1-74" value="&lt;h2&gt;F.relu&lt;/h2&gt;" style="text;html=1;resizable=0;autosize=1;align=center;verticalAlign=middle;points=[];fillColor=none;strokeColor=none;rounded=0;sketch=0;fontColor=#EEEEEE;" vertex="1" parent="cQOsYrCyrepyryi9Fav1-72">
          <mxGeometry x="15" y="20" width="70" height="60" as="geometry" />
        </mxCell>
        <mxCell id="cQOsYrCyrepyryi9Fav1-75" value="" style="group;fontColor=#EEEEEE;" vertex="1" connectable="0" parent="1">
          <mxGeometry x="1780" y="-350" width="120" height="100" as="geometry" />
        </mxCell>
        <mxCell id="cQOsYrCyrepyryi9Fav1-76" value="" style="whiteSpace=wrap;html=1;aspect=fixed;rounded=0;sketch=0;fontSize=14;fontColor=#EEEEEE;strokeColor=#BAC8D3;fillColor=#09555B;" vertex="1" parent="cQOsYrCyrepyryi9Fav1-75">
          <mxGeometry x="10" width="100" height="100" as="geometry" />
        </mxCell>
        <mxCell id="cQOsYrCyrepyryi9Fav1-77" value="&lt;h3&gt;BatchNorm2d&lt;/h3&gt;" style="text;html=1;resizable=0;autosize=1;align=center;verticalAlign=middle;points=[];fillColor=none;strokeColor=none;rounded=0;sketch=0;fontColor=#EEEEEE;" vertex="1" parent="cQOsYrCyrepyryi9Fav1-75">
          <mxGeometry y="20" width="120" height="60" as="geometry" />
        </mxCell>
        <mxCell id="cQOsYrCyrepyryi9Fav1-78" value="" style="edgeStyle=orthogonalEdgeStyle;rounded=0;orthogonalLoop=1;jettySize=auto;html=1;strokeColor=#0B4D6A;" edge="1" parent="1" source="cQOsYrCyrepyryi9Fav1-79" target="cQOsYrCyrepyryi9Fav1-93">
          <mxGeometry relative="1" as="geometry" />
        </mxCell>
        <mxCell id="cQOsYrCyrepyryi9Fav1-79" value="&lt;h1&gt;&lt;font color=&quot;#000000&quot;&gt;Out&lt;/font&gt;&lt;/h1&gt;" style="text;html=1;resizable=0;autosize=1;align=center;verticalAlign=middle;points=[];fillColor=none;strokeColor=none;rounded=0;sketch=0;fontSize=14;fontColor=#EEEEEE;" vertex="1" parent="1">
          <mxGeometry x="2090" y="-800" width="70" height="80" as="geometry" />
        </mxCell>
        <mxCell id="cQOsYrCyrepyryi9Fav1-80" value="" style="group;fontColor=#EEEEEE;" vertex="1" connectable="0" parent="1">
          <mxGeometry x="2080" y="-690" width="90" height="80" as="geometry" />
        </mxCell>
        <mxCell id="cQOsYrCyrepyryi9Fav1-81" value="" style="whiteSpace=wrap;html=1;aspect=fixed;rounded=0;sketch=0;fontSize=14;fontColor=#EEEEEE;strokeColor=#BAC8D3;fillColor=#09555B;" vertex="1" parent="cQOsYrCyrepyryi9Fav1-80">
          <mxGeometry x="5" width="80" height="80" as="geometry" />
        </mxCell>
        <mxCell id="cQOsYrCyrepyryi9Fav1-82" value="&lt;h2&gt;Linear&lt;/h2&gt;" style="text;html=1;resizable=0;autosize=1;align=center;verticalAlign=middle;points=[];fillColor=none;strokeColor=none;rounded=0;sketch=0;fontColor=#EEEEEE;" vertex="1" parent="cQOsYrCyrepyryi9Fav1-80">
          <mxGeometry x="5" y="10" width="80" height="60" as="geometry" />
        </mxCell>
        <mxCell id="cQOsYrCyrepyryi9Fav1-83" value="" style="group;fontColor=#EEEEEE;" vertex="1" connectable="0" parent="1">
          <mxGeometry x="2080" y="-520" width="90" height="80" as="geometry" />
        </mxCell>
        <mxCell id="cQOsYrCyrepyryi9Fav1-84" value="" style="whiteSpace=wrap;html=1;aspect=fixed;rounded=0;sketch=0;fontSize=14;fontColor=#EEEEEE;strokeColor=#BAC8D3;fillColor=#09555B;" vertex="1" parent="cQOsYrCyrepyryi9Fav1-83">
          <mxGeometry x="5" width="80" height="80" as="geometry" />
        </mxCell>
        <mxCell id="cQOsYrCyrepyryi9Fav1-85" value="&lt;h2&gt;Linear&lt;/h2&gt;" style="text;html=1;resizable=0;autosize=1;align=center;verticalAlign=middle;points=[];fillColor=none;strokeColor=none;rounded=0;sketch=0;fontColor=#EEEEEE;" vertex="1" parent="cQOsYrCyrepyryi9Fav1-83">
          <mxGeometry x="5" y="10" width="80" height="60" as="geometry" />
        </mxCell>
        <mxCell id="cQOsYrCyrepyryi9Fav1-86" value="" style="edgeStyle=orthogonalEdgeStyle;curved=0;rounded=1;sketch=0;orthogonalLoop=1;jettySize=auto;html=1;strokeColor=#0B4D6A;exitX=0.5;exitY=1;exitDx=0;exitDy=0;entryX=0.5;entryY=0;entryDx=0;entryDy=0;" edge="1" parent="1" source="cQOsYrCyrepyryi9Fav1-81" target="cQOsYrCyrepyryi9Fav1-84">
          <mxGeometry relative="1" as="geometry">
            <mxPoint x="1849.9999999999995" y="-600" as="sourcePoint" />
            <mxPoint x="1849.9999999999995" y="-520" as="targetPoint" />
          </mxGeometry>
        </mxCell>
        <mxCell id="cQOsYrCyrepyryi9Fav1-87" value="" style="edgeStyle=orthogonalEdgeStyle;rounded=0;orthogonalLoop=1;jettySize=auto;html=1;strokeColor=#0B4D6A;" edge="1" parent="1" source="cQOsYrCyrepyryi9Fav1-88" target="cQOsYrCyrepyryi9Fav1-3">
          <mxGeometry relative="1" as="geometry" />
        </mxCell>
        <mxCell id="cQOsYrCyrepyryi9Fav1-88" value="&lt;h1&gt;&lt;font color=&quot;#000000&quot;&gt;Input&lt;/font&gt;&lt;/h1&gt;" style="text;html=1;resizable=0;autosize=1;align=center;verticalAlign=middle;points=[];fillColor=none;strokeColor=none;rounded=0;sketch=0;fontSize=14;fontColor=#EEEEEE;" vertex="1" parent="1">
          <mxGeometry x="170" y="-800" width="90" height="80" as="geometry" />
        </mxCell>
        <mxCell id="cQOsYrCyrepyryi9Fav1-89" value="" style="shape=waypoint;sketch=0;size=6;pointerEvents=1;points=[];fillColor=none;resizable=0;rotatable=0;perimeter=centerPerimeter;snapToPoint=1;strokeColor=#BAC8D3;fontColor=#EEEEEE;" vertex="1" parent="1">
          <mxGeometry x="730" y="-780" width="40" height="40" as="geometry" />
        </mxCell>
        <mxCell id="cQOsYrCyrepyryi9Fav1-90" value="" style="shape=waypoint;sketch=0;size=6;pointerEvents=1;points=[];fillColor=none;resizable=0;rotatable=0;perimeter=centerPerimeter;snapToPoint=1;strokeColor=#BAC8D3;fontColor=#EEEEEE;" vertex="1" parent="1">
          <mxGeometry x="1060" y="-780" width="40" height="40" as="geometry" />
        </mxCell>
        <mxCell id="cQOsYrCyrepyryi9Fav1-91" value="" style="shape=waypoint;sketch=0;size=6;pointerEvents=1;points=[];fillColor=none;resizable=0;rotatable=0;perimeter=centerPerimeter;snapToPoint=1;strokeColor=#BAC8D3;fontColor=#EEEEEE;" vertex="1" parent="1">
          <mxGeometry x="1440" y="-780" width="40" height="40" as="geometry" />
        </mxCell>
        <mxCell id="cQOsYrCyrepyryi9Fav1-92" value="" style="shape=waypoint;sketch=0;size=6;pointerEvents=1;points=[];fillColor=none;resizable=0;rotatable=0;perimeter=centerPerimeter;snapToPoint=1;strokeColor=#BAC8D3;fontColor=#EEEEEE;" vertex="1" parent="1">
          <mxGeometry x="2060" y="-780" width="40" height="40" as="geometry" />
        </mxCell>
        <mxCell id="cQOsYrCyrepyryi9Fav1-93" value="&lt;h1&gt;&lt;font color=&quot;#000000&quot;&gt;Output&lt;/font&gt;&lt;/h1&gt;" style="text;html=1;resizable=0;autosize=1;align=center;verticalAlign=middle;points=[];fillColor=none;strokeColor=none;rounded=0;sketch=0;fontSize=14;fontColor=#EEEEEE;" vertex="1" parent="1">
          <mxGeometry x="2205" y="-800" width="120" height="80" as="geometry" />
        </mxCell>
        <mxCell id="cQOsYrCyrepyryi9Fav1-94" value="" style="group;fontColor=#EEEEEE;" vertex="1" connectable="0" parent="1">
          <mxGeometry x="1012.5" y="-930" width="355" height="90" as="geometry" />
        </mxCell>
        <mxCell id="cQOsYrCyrepyryi9Fav1-95" value="" style="rounded=1;whiteSpace=wrap;html=1;fillColor=#09555B;strokeColor=#BAC8D3;fontColor=#EEEEEE;" vertex="1" parent="cQOsYrCyrepyryi9Fav1-94">
          <mxGeometry width="355" height="90" as="geometry" />
        </mxCell>
        <mxCell id="cQOsYrCyrepyryi9Fav1-96" value="&lt;h1&gt;&lt;font style=&quot;font-size: 36px;&quot;&gt;SimpsonsNet&lt;/font&gt;&lt;/h1&gt;" style="text;html=1;resizable=0;autosize=1;align=center;verticalAlign=middle;points=[];fillColor=none;strokeColor=none;rounded=0;fontColor=#EEEEEE;" vertex="1" parent="cQOsYrCyrepyryi9Fav1-94">
          <mxGeometry x="45" width="250" height="90" as="geometry" />
        </mxCell>
      </root>
    </mxGraphModel>
  </diagram>
</mxfile>
